<?xml version="1.0" encoding="utf-8"?>
<svg xmlns="http://www.w3.org/2000/svg" xmlns:xlink="http://www.w3.org/1999/xlink" version="1.1" id="Livello_1" x="0px" y="0px" viewBox="0 0 280 92" style="enable-background:new 0 0 280 92;">
<style type="text/css">
	.st0{fill-rule:evenodd;clip-rule:evenodd;fill:#D30C2F;}
</style>
<g>
	<g>
		<g>
			<path class="st0" d="M3.57,68.22h-3.74v-2.39h10.19v2.39H6.31v10.38H3.57V68.22z"/>
			<path class="st0" d="M17.57,72.98c0-1.28-0.67-1.69-1.72-1.69c-0.94,0-1.69,0.54-2.11,1.09v6.23h-2.43V65.83h2.43v4.73&#xA;				c0.59-0.71,1.74-1.44,3.26-1.44c2.03,0,3.01,1.11,3.01,2.91v6.57h-2.43V72.98z"/>
			<path class="st0" d="M26.36,69.12c2.76,0,4.64,2.07,4.64,5.1v0.54h-6.88c0.15,1.17,1.09,2.15,2.66,2.15&#xA;				c0.86,0,1.88-0.34,2.47-0.92l1.07,1.57c-0.92,0.84-2.38,1.28-3.81,1.28c-2.82,0-4.94-1.9-4.94-4.87&#xA;				C21.57,71.29,23.55,69.12,26.36,69.12z M24.08,73.11h4.56c-0.06-0.88-0.67-2.05-2.28-2.05C24.85,71.06,24.2,72.19,24.08,73.11z"/>
			<path class="st0" d="M43.93,72.98c0-1.28-0.67-1.69-1.72-1.69c-0.94,0-1.69,0.54-2.11,1.09v6.23h-2.43V65.83h2.43v4.73&#xA;				c0.59-0.71,1.74-1.44,3.26-1.44c2.03,0,3.01,1.11,3.01,2.91v6.57h-2.43V72.98z"/>
			<path class="st0" d="M47.93,73.97c0-2.62,1.84-4.85,4.88-4.85c3.06,0,4.9,2.22,4.9,4.85c0,2.64-1.84,4.87-4.9,4.87&#xA;				C49.77,78.84,47.93,76.61,47.93,73.97z M55.19,73.97c0-1.44-0.86-2.68-2.38-2.68c-1.51,0-2.36,1.25-2.36,2.68&#xA;				c0,1.46,0.84,2.7,2.36,2.7C54.33,76.67,55.19,75.43,55.19,73.97z"/>
			<path class="st0" d="M70.79,72.76c0-0.86-0.38-1.48-1.38-1.48c-0.86,0-1.57,0.57-1.92,1.07v6.24h-2.45v-5.84&#xA;				c0-0.86-0.38-1.48-1.38-1.48c-0.84,0-1.55,0.57-1.92,1.09v6.23h-2.43v-9.25h2.43v1.21c0.38-0.56,1.61-1.44,3.03-1.44&#xA;				c1.36,0,2.22,0.63,2.57,1.69c0.54-0.84,1.76-1.69,3.18-1.69c1.7,0,2.72,0.9,2.72,2.8v6.69h-2.45V72.76z"/>
			<path class="st0" d="M79.61,69.12c2.76,0,4.64,2.07,4.64,5.1v0.54h-6.88c0.15,1.17,1.09,2.15,2.66,2.15&#xA;				c0.86,0,1.88-0.34,2.47-0.92l1.07,1.57c-0.92,0.84-2.38,1.28-3.81,1.28c-2.82,0-4.94-1.9-4.94-4.87&#xA;				C74.82,71.29,76.79,69.12,79.61,69.12z M77.33,73.11h4.56c-0.06-0.88-0.67-2.05-2.28-2.05C78.1,71.06,77.44,72.19,77.33,73.11z"/>
			<path class="st0" d="M90.31,73.97c0-2.62,1.84-4.85,4.88-4.85c3.06,0,4.9,2.22,4.9,4.85c0,2.64-1.84,4.87-4.9,4.87&#xA;				C92.15,78.84,90.31,76.61,90.31,73.97z M97.57,73.97c0-1.44-0.86-2.68-2.38-2.68c-1.51,0-2.36,1.25-2.36,2.68&#xA;				c0,1.46,0.84,2.7,2.36,2.7C96.71,76.67,97.57,75.43,97.57,73.97z"/>
			<path class="st0" d="M102.23,71.48h-1.53v-2.13h1.53v-0.5c0-2.01,1.3-3.22,3.12-3.22c0.69,0,1.32,0.15,1.76,0.38l-0.5,1.72&#xA;				c-0.21-0.13-0.5-0.19-0.79-0.19c-0.69,0-1.15,0.46-1.15,1.34v0.46h1.88v2.13h-1.88v7.13h-2.45V71.48z"/>
			<path class="st0" d="M113.11,75.7c0.67,0.63,2.05,1.26,3.2,1.26c1.05,0,1.55-0.36,1.55-0.94c0-0.65-0.8-0.88-1.86-1.09&#xA;				c-1.59-0.31-3.64-0.69-3.64-2.89c0-1.55,1.36-2.91,3.79-2.91c1.57,0,2.82,0.54,3.74,1.26l-0.98,1.67&#xA;				c-0.56-0.59-1.61-1.07-2.74-1.07c-0.88,0-1.46,0.33-1.46,0.86c0,0.57,0.73,0.79,1.76,1c1.59,0.31,3.72,0.73,3.72,3.03&#xA;				c0,1.69-1.44,2.97-4,2.97c-1.61,0-3.16-0.54-4.14-1.44L113.11,75.7z"/>
			<path class="st0" d="M127.97,77.44c-0.63,0.71-1.74,1.4-3.26,1.4c-2.03,0-2.99-1.11-2.99-2.91v-6.57h2.43v5.61&#xA;				c0,1.28,0.67,1.7,1.7,1.7c0.94,0,1.69-0.52,2.11-1.05v-6.26h2.43v9.25h-2.43V77.44z"/>
			<path class="st0" d="M132.89,75.7c0.67,0.63,2.05,1.26,3.2,1.26c1.05,0,1.55-0.36,1.55-0.94c0-0.65-0.8-0.88-1.86-1.09&#xA;				c-1.59-0.31-3.64-0.69-3.64-2.89c0-1.55,1.36-2.91,3.79-2.91c1.57,0,2.82,0.54,3.74,1.26l-0.98,1.67&#xA;				c-0.56-0.59-1.61-1.07-2.74-1.07c-0.88,0-1.46,0.33-1.46,0.86c0,0.57,0.73,0.79,1.76,1c1.59,0.31,3.72,0.73,3.72,3.03&#xA;				c0,1.69-1.44,2.97-4,2.97c-1.61,0-3.16-0.54-4.14-1.44L132.89,75.7z"/>
			<path class="st0" d="M142.17,76.31v-4.83h-1.53v-2.13h1.53v-2.53h2.45v2.53h1.88v2.13h-1.88v4.18c0,0.57,0.31,1.01,0.84,1.01&#xA;				c0.36,0,0.71-0.13,0.84-0.27l0.52,1.84c-0.36,0.33-1.01,0.59-2.03,0.59C143.09,78.84,142.17,77.96,142.17,76.31z"/>
			<path class="st0" d="M153.58,77.65c-0.63,0.75-1.72,1.19-2.93,1.19c-1.48,0-3.22-1-3.22-3.06c0-2.16,1.74-2.95,3.22-2.95&#xA;				c1.23,0,2.32,0.38,2.93,1.13v-1.28c0-0.94-0.8-1.55-2.03-1.55c-1,0-1.92,0.36-2.7,1.09l-0.92-1.63c1.13-1,2.59-1.46,4.04-1.46&#xA;				c2.11,0,4.04,0.84,4.04,3.51v5.98h-2.43V77.65z M153.58,75.24c-0.4-0.54-1.17-0.8-1.95-0.8c-0.96,0-1.74,0.5-1.74,1.4&#xA;				c0,0.86,0.79,1.36,1.74,1.36c0.79,0,1.55-0.27,1.95-0.8V75.24z"/>
			<path class="st0" d="M157.87,66.54c0-0.8,0.67-1.46,1.46-1.46c0.8,0,1.46,0.65,1.46,1.46c0,0.8-0.65,1.46-1.46,1.46&#xA;				C158.54,67.99,157.87,67.34,157.87,66.54z M158.12,69.36h2.43v9.25h-2.43V69.36z"/>
			<path class="st0" d="M168.94,73.01c0-1.28-0.67-1.72-1.7-1.72c-0.96,0-1.71,0.54-2.11,1.09v6.23h-2.43v-9.25h2.43v1.21&#xA;				c0.59-0.71,1.72-1.44,3.24-1.44c2.03,0,3.01,1.15,3.01,2.95v6.53h-2.43V73.01z"/>
			<path class="st0" d="M179.09,77.65c-0.63,0.75-1.72,1.19-2.93,1.19c-1.48,0-3.22-1-3.22-3.06c0-2.16,1.74-2.95,3.22-2.95&#xA;				c1.23,0,2.32,0.38,2.93,1.13v-1.28c0-0.94-0.8-1.55-2.03-1.55c-1,0-1.92,0.36-2.7,1.09l-0.92-1.63c1.13-1,2.59-1.46,4.04-1.46&#xA;				c2.11,0,4.04,0.84,4.04,3.51v5.98h-2.43V77.65z M179.09,75.24c-0.4-0.54-1.17-0.8-1.95-0.8c-0.96,0-1.74,0.5-1.74,1.4&#xA;				c0,0.86,0.79,1.36,1.74,1.36c0.79,0,1.55-0.27,1.95-0.8V75.24z"/>
			<path class="st0" d="M183.65,65.83h2.43v4.71c0.73-0.94,1.76-1.42,2.85-1.42c2.36,0,4.1,1.84,4.1,4.87c0,3.08-1.76,4.85-4.1,4.85&#xA;				c-1.11,0-2.13-0.5-2.85-1.42v1.19h-2.43V65.83z M188.17,76.67c1.42,0,2.36-1.07,2.36-2.68c0-1.61-0.94-2.7-2.36-2.7&#xA;				c-0.79,0-1.69,0.46-2.09,1.07v3.28C186.48,76.23,187.38,76.67,188.17,76.67z"/>
			<path class="st0" d="M194.7,65.83h2.43v12.78h-2.43V65.83z"/>
			<path class="st0" d="M203.49,69.12c2.76,0,4.64,2.07,4.64,5.1v0.54h-6.88c0.15,1.17,1.09,2.15,2.66,2.15&#xA;				c0.86,0,1.88-0.34,2.47-0.92l1.07,1.57c-0.92,0.84-2.38,1.28-3.81,1.28c-2.82,0-4.94-1.9-4.94-4.87&#xA;				C198.7,71.29,200.68,69.12,203.49,69.12z M201.21,73.11h4.56c-0.06-0.88-0.67-2.05-2.28-2.05&#xA;				C201.98,71.06,201.33,72.19,201.21,73.11z"/>
			<path class="st0" d="M219.1,69.12c1.9,0,3.05,0.82,3.66,1.67l-1.59,1.49c-0.44-0.65-1.11-1-1.95-1c-1.48,0-2.51,1.07-2.51,2.68&#xA;				c0,1.61,1.03,2.7,2.51,2.7c0.84,0,1.51-0.38,1.95-1l1.59,1.48c-0.61,0.86-1.76,1.69-3.66,1.69c-2.85,0-4.9-2.01-4.9-4.87&#xA;				C214.2,71.14,216.25,69.12,219.1,69.12z"/>
			<path class="st0" d="M223.26,73.97c0-2.62,1.84-4.85,4.88-4.85c3.06,0,4.9,2.22,4.9,4.85c0,2.64-1.84,4.87-4.9,4.87&#xA;				C225.1,78.84,223.26,76.61,223.26,73.97z M230.52,73.97c0-1.44-0.86-2.68-2.38-2.68s-2.36,1.25-2.36,2.68&#xA;				c0,1.46,0.84,2.7,2.36,2.7S230.52,75.43,230.52,73.97z"/>
			<path class="st0" d="M246.12,72.76c0-0.86-0.38-1.48-1.38-1.48c-0.86,0-1.57,0.57-1.92,1.07v6.24h-2.45v-5.84&#xA;				c0-0.86-0.38-1.48-1.38-1.48c-0.84,0-1.55,0.57-1.92,1.09v6.23h-2.43v-9.25h2.43v1.21c0.38-0.56,1.61-1.44,3.03-1.44&#xA;				c1.36,0,2.22,0.63,2.57,1.69c0.54-0.84,1.76-1.69,3.18-1.69c1.7,0,2.72,0.9,2.72,2.8v6.69h-2.45V72.76z"/>
			<path class="st0" d="M251.3,71.48h-1.53v-2.13h1.53v-0.5c0-2.01,1.3-3.22,3.12-3.22c0.69,0,1.32,0.15,1.76,0.38l-0.5,1.72&#xA;				c-0.21-0.13-0.5-0.19-0.79-0.19c-0.69,0-1.15,0.46-1.15,1.34v0.46h1.88v2.13h-1.88v7.13h-2.45V71.48z"/>
			<path class="st0" d="M256.21,73.97c0-2.62,1.84-4.85,4.88-4.85c3.06,0,4.9,2.22,4.9,4.85c0,2.64-1.84,4.87-4.9,4.87&#xA;				C258.05,78.84,256.21,76.61,256.21,73.97z M263.47,73.97c0-1.44-0.86-2.68-2.38-2.68s-2.36,1.25-2.36,2.68&#xA;				c0,1.46,0.84,2.7,2.36,2.7S263.47,75.43,263.47,73.97z"/>
			<path class="st0" d="M267.59,69.36h2.43v1.26c0.65-0.82,1.8-1.48,2.95-1.48v2.38c-0.17-0.04-0.4-0.08-0.67-0.08&#xA;				c-0.8,0-1.88,0.46-2.28,1.05v6.11h-2.43V69.36z"/>
			<path class="st0" d="M275.18,76.31v-4.83h-1.53v-2.13h1.53v-2.53h2.45v2.53h1.88v2.13h-1.88v4.18c0,0.57,0.31,1.01,0.84,1.01&#xA;				c0.36,0,0.71-0.13,0.84-0.27l0.52,1.84c-0.36,0.33-1.01,0.59-2.03,0.59C276.1,78.84,275.18,77.96,275.18,76.31z"/>
		</g>
	</g>
	<g>
		<g>
			<polygon class="st0" points="179.86,31.12 179.86,36.85 191.01,36.85 191.01,57.87 197.06,57.87 197.06,36.85 207.88,36.85 &#xA;				207.88,31.12"/>
			<path class="st0" d="M271.63,56.24c1.95,1.93,2.48,2.26,4.39,2.26c2.55,0,3.82-2.23,3.82-3.82V31.12h-6.37v18.79l-16.56-17.19&#xA;				c-1.95-1.93-2.55-2.23-4.46-2.23c-2.55,0-3.82,2.23-3.82,3.82v23.56H255V39.08L271.63,56.24z"/>
			<path class="st0" d="M227.3,30.17c-10.6,0-16.56,2.63-16.56,14.33s5.95,14.33,16.56,14.33c10.6,0,16.56-2.63,16.56-14.33&#xA;				S237.91,30.17,227.3,30.17z M227.3,52.77c-6.55,0-9.87-0.48-9.87-8.28c0-7.8,3.32-8.28,9.87-8.28c6.55,0,9.97,0.48,9.97,8.28&#xA;				C237.27,52.3,233.85,52.77,227.3,52.77z"/>
			<polygon class="st0" points="132.4,57.87 138.47,57.87 138.45,31.12 132.4,31.12"/>
			<path class="st0" d="M102.49,36.85h12.2c3.59,0,4.03,1.63,4.03,3.17c0,1.55-0.47,3.19-4.01,3.19h-12.22V36.85z M119.22,47.71&#xA;				c3.82-0.95,5.99-3.85,5.99-7.82c0-5.41-3.57-8.77-9.32-8.77H96.76v26.75h5.73v-9.55h10.19l6.33,9.55h7.36L119.22,47.71z"/>
			<path class="st0" d="M163.37,41.07h-5.36c-4.6,0-5.54-0.87-5.54-2.51c0-2.01,3.08-2.78,7.42-2.78c3.82,0,7.42,0.64,11.6,2.6&#xA;				l3.21-4.51c-4.56-2.75-9.2-3.7-14.88-3.7c-8.71,0-13.79,3.21-13.79,8.69c0,5.96,4.93,7.99,11.29,7.93h5.91&#xA;				c5.81,0,6.58,0.67,6.58,2.88c0,2.2-3.22,3.55-8.39,3.55c-4.55,0-9.23-0.9-13.34-3.64l-3.25,4.62c4.36,3.47,9.74,4.67,16.55,4.67&#xA;				c9.51,0,14.97-3.46,14.97-9.49C176.36,43.84,171.99,41.07,163.37,41.07"/>
			<path class="st0" d="M55.34,57.87h7.35l2.87-4.78h17.19l2.87,4.78h7.32l-15.6-25.79c-0.64-0.96-1.91-1.59-3.18-1.59&#xA;				c-1.27,0-2.55,0.64-3.18,1.59L55.34,57.87z M74.15,38.1l5.73,9.9H68.42l5.73-9.87"/>
		</g>
		<g>
			<polygon class="st0" points="13.19,36.29 13.19,45.84 27.18,45.84 27.18,36.29 20.18,29.93"/>
			<path class="st0" d="M40.54,31.22v23.29c0,1.85-1.5,3.35-3.35,3.35h-34c-1.85,0-3.35-1.5-3.35-3.35V31.22&#xA;				c0-0.95,0.41-1.86,1.12-2.5l16.99-15.18c1.27-1.14,3.19-1.14,4.46,0l17.01,15.18C40.14,29.36,40.54,30.27,40.54,31.22z&#xA;				 M20.18,18.79L4.92,32.48v20.36h30.54V32.48L20.18,18.79z"/>
		</g>
	</g>
</g>
</svg>